<?xml version="1.0" standalone="no"?>
<!DOCTYPE svg PUBLIC "-//W3C//DTD SVG 20010904//EN"
 "http://www.w3.org/TR/2001/REC-SVG-20010904/DTD/svg10.dtd">
<svg version="1.0" xmlns="http://www.w3.org/2000/svg"
 width="1800.000000pt" height="705.000000pt" viewBox="0 0 1800.000000 705.000000"
 preserveAspectRatio="xMidYMid meet">
<g transform="translate(0.000000,705.000000) scale(0.100000,-0.100000)"
fill="#ff0000" stroke="none">
<path d="M0 3525 l0 -3525 9000 0 9000 0 0 3525 0 3525 -9000 0 -9000 0 0
-3525z m14950 2195 c47 -11 101 -25 120 -30 38 -9 113 -35 145 -50 67 -31 115
-50 124 -50 6 0 11 -4 11 -9 0 -5 10 -13 22 -17 64 -20 269 -167 377 -268 115
-110 240 -273 266 -348 19 -55 19 -70 -1 -111 -33 -69 -12 -67 -727 -67 -734
0 -674 7 -772 -94 -49 -50 -125 -166 -125 -190 0 -7 -7 -21 -15 -32 -8 -10
-15 -25 -15 -32 0 -8 -6 -28 -14 -45 -16 -36 -37 -110 -60 -207 -55 -239 -54
-494 5 -715 11 -44 25 -97 30 -118 5 -21 23 -68 39 -104 17 -36 30 -69 30 -74
0 -18 93 -160 136 -207 87 -98 35 -92 797 -92 734 0 713 2 750 -62 36 -64 17
-114 -104 -264 -85 -104 -210 -216 -334 -299 -134 -89 -359 -205 -397 -205 -8
0 -19 -5 -25 -11 -6 -6 -29 -15 -50 -20 -21 -4 -69 -17 -108 -29 -132 -39
-405 -60 -545 -41 -162 22 -309 61 -440 118 -61 27 -65 30 -68 54 -2 13 -8 29
-12 34 -5 6 -11 28 -15 50 -4 22 -11 45 -14 50 -4 6 -17 44 -30 85 -14 41 -30
89 -38 107 -7 17 -13 37 -13 45 -1 13 -25 83 -48 141 -7 16 -12 36 -12 46 0 9
-4 21 -9 27 -6 5 -14 27 -20 49 -18 72 -45 160 -72 230 -8 23 -30 90 -60 185
-12 36 -27 79 -35 97 -8 17 -14 37 -14 45 0 7 -16 58 -36 113 -20 55 -47 136
-61 180 -14 44 -29 88 -34 98 -8 14 1 29 44 75 51 54 95 120 127 187 68 146
67 412 -2 575 -23 55 -44 70 -93 70 -80 0 -89 -13 -56 -84 49 -106 69 -239 52
-359 -12 -83 -38 -174 -52 -183 -5 -3 -9 -12 -9 -20 0 -8 -10 -29 -22 -47 -29
-41 -115 -127 -128 -127 -5 0 -14 -8 -19 -18 -7 -14 -2 -39 21 -98 17 -43 36
-95 43 -114 7 -19 18 -51 24 -70 7 -19 16 -48 21 -65 5 -16 18 -55 30 -85 12
-30 24 -64 27 -75 3 -11 11 -34 19 -52 8 -17 14 -40 14 -50 0 -10 4 -23 8 -29
8 -8 65 -173 83 -239 8 -31 57 -168 77 -218 7 -16 12 -31 12 -35 -1 -10 90
-291 106 -330 8 -18 14 -43 14 -55 0 -13 6 -29 13 -36 29 -32 -66 28 -127 79
-163 137 -338 319 -360 373 -4 12 -15 40 -23 62 -9 22 -21 54 -29 70 -39 90
-44 104 -44 112 0 10 -54 154 -75 200 -8 17 -15 36 -15 42 0 6 -4 19 -9 29 -5
9 -48 121 -94 247 l-85 230 -108 0 -109 0 -5 -400 c-3 -220 -9 -406 -13 -412
-6 -10 -92 -13 -371 -13 l-364 0 -6 23 c-3 12 -6 47 -6 77 0 30 -7 111 -15
180 -8 69 -15 169 -15 222 0 53 -5 131 -11 174 -6 42 -14 147 -19 233 -11 207
-40 613 -45 629 -8 22 -34 13 -42 -15 -3 -16 -26 -72 -50 -127 -24 -54 -43
-103 -43 -108 0 -5 -8 -28 -19 -51 -10 -23 -33 -82 -51 -130 -18 -48 -41 -92
-51 -97 -24 -13 -318 -9 -329 5 -4 6 1 29 13 55 20 45 26 60 67 160 12 30 32
78 45 105 12 28 37 86 55 130 18 44 46 108 61 142 16 35 29 65 29 68 0 4 11
31 25 61 14 30 36 82 51 117 14 34 32 76 40 94 8 17 14 36 14 42 0 26 45 31
252 29 l213 -3 7 -50 c17 -112 19 -135 28 -260 5 -71 14 -175 19 -230 20 -185
41 -420 45 -485 15 -243 49 -590 60 -608 9 -15 73 -16 82 -1 3 6 6 183 5 392
-1 210 2 387 7 394 5 9 93 13 327 15 314 3 321 3 357 26 76 48 113 129 106
235 -5 76 -38 133 -102 176 l-39 26 -354 3 -353 3 -4 22 c-11 61 -26 181 -32
258 l-7 86 214 5 c213 5 251 10 399 54 76 23 244 97 260 115 3 3 32 21 65 41
63 38 158 111 236 182 286 259 460 374 681 450 157 55 243 65 488 61 165 -3
221 -8 290 -25z m-11562 -51 c113 -12 188 -24 256 -38 51 -11 65 -15 171 -50
176 -57 368 -161 521 -281 227 -177 249 -191 399 -264 87 -43 341 -126 382
-126 10 0 50 -6 88 -14 192 -40 333 -50 808 -56 l467 -5 -45 -55 c-67 -80
-109 -147 -135 -215 -13 -33 -29 -66 -34 -74 -9 -11 -62 -13 -298 -8 -360 6
-402 -2 -469 -87 -26 -33 -49 -101 -49 -145 0 -39 49 -145 77 -168 52 -41 96
-53 212 -53 175 0 320 -33 416 -95 52 -33 165 -148 165 -167 0 -6 6 -19 13
-27 15 -18 33 -73 47 -146 33 -168 33 -164 17 -233 -9 -37 -19 -87 -22 -111
-7 -44 -20 -80 -57 -161 -30 -66 -143 -174 -221 -211 -90 -41 -141 -50 -377
-58 -204 -8 -246 -13 -455 -57 -206 -43 -265 -59 -390 -108 -65 -26 -245 -112
-290 -139 -20 -12 -205 -148 -228 -167 -35 -30 -147 -110 -153 -110 -4 0 -15
-6 -23 -14 -39 -34 -317 -166 -351 -166 -9 0 -20 -4 -26 -9 -5 -6 -27 -14 -49
-20 -267 -66 -263 -66 -515 -66 -239 0 -305 8 -441 51 -26 7 -54 14 -62 14
-42 0 -283 104 -392 170 -27 16 -57 33 -65 37 -8 4 -59 40 -113 80 -310 235
-530 538 -647 893 -46 143 -47 146 -71 275 -29 158 -31 480 -5 620 25 129 32
163 51 225 9 30 20 69 25 85 27 95 128 314 181 393 16 24 29 45 29 48 0 5 18
30 93 129 100 134 337 346 477 428 66 38 235 121 310 151 83 33 246 76 330 87
36 5 94 13 130 18 94 12 207 13 318 0z m4102 -839 c0 -5 -23 -54 -51 -107 -29
-54 -67 -128 -86 -165 -19 -38 -35 -68 -36 -69 -1 0 -82 -3 -179 -5 -146 -3
-187 -8 -230 -24 -114 -43 -198 -166 -234 -343 -23 -113 -38 -107 265 -107
198 0 260 -3 263 -12 2 -7 1 -85 -2 -173 l-5 -160 -265 -5 -265 -5 3 -50 c7
-140 93 -308 190 -372 65 -42 159 -55 387 -51 l180 3 5 405 c3 223 7 406 8
408 1 1 145 2 320 2 287 0 321 2 358 19 86 39 126 100 132 202 6 96 -9 140
-62 193 -66 66 -83 69 -415 72 -162 2 -296 6 -299 8 -2 3 7 24 21 48 13 24 48
88 77 143 29 55 61 113 72 128 l20 28 247 -4 c248 -4 342 -14 363 -35 7 -7 19
-12 28 -12 14 0 98 -52 142 -88 25 -21 88 -114 112 -167 11 -22 23 -48 28 -59
43 -84 42 -371 0 -453 -6 -10 -22 -44 -37 -77 -31 -67 -89 -134 -140 -162 -49
-26 -52 -50 -17 -125 47 -100 62 -136 62 -147 0 -6 6 -23 14 -39 13 -25 54
-126 93 -228 9 -22 22 -54 29 -72 8 -17 14 -34 14 -37 0 -3 11 -29 25 -58 40
-86 85 -211 85 -235 l0 -23 -184 0 -183 0 -23 48 c-12 26 -29 60 -36 75 -8 16
-14 37 -14 47 0 10 -4 21 -9 24 -4 3 -16 27 -26 53 -76 205 -143 373 -160 405
-8 14 -15 33 -15 41 0 13 -14 49 -43 107 -12 24 -17 25 -116 28 -67 2 -108 -1
-117 -9 -12 -9 -14 -79 -14 -398 0 -296 -3 -391 -13 -404 -11 -16 -43 -17
-422 -14 -498 5 -560 14 -696 103 -55 37 -136 116 -162 160 -3 6 8 51 24 100
29 84 30 99 31 245 0 142 -2 163 -26 237 -42 131 -85 211 -148 275 -53 54 -58
63 -58 102 0 88 66 343 110 425 10 19 24 46 30 59 17 37 68 101 129 160 61 60
197 130 254 132 17 1 43 5 57 9 38 12 610 12 610 0z m1405 -147 c21 -87 49
-201 63 -253 13 -52 28 -111 32 -130 5 -19 11 -44 14 -55 17 -61 90 -359 101
-410 7 -33 18 -80 24 -105 23 -84 41 -155 43 -174 8 -54 48 -10 62 68 4 21 11
46 15 55 5 9 16 43 26 76 9 33 23 78 30 100 19 61 55 185 67 230 5 22 16 58
22 80 41 129 94 314 107 368 5 21 13 45 18 55 9 16 16 42 42 147 5 22 17 55
25 73 l15 32 162 -2 162 -3 -3 -45 c-1 -25 -9 -61 -16 -80 -30 -79 -76 -231
-76 -250 0 -12 -6 -33 -14 -48 -7 -15 -16 -44 -20 -66 -4 -21 -11 -46 -15 -55
-5 -9 -16 -43 -26 -76 -9 -33 -23 -78 -31 -100 -8 -23 -14 -49 -14 -59 0 -10
-6 -32 -14 -49 -8 -18 -22 -59 -31 -92 -9 -33 -22 -78 -29 -100 -7 -22 -20
-65 -29 -95 -9 -30 -30 -100 -47 -155 -16 -55 -39 -131 -51 -170 -11 -38 -25
-81 -29 -95 -5 -14 -16 -52 -25 -85 -9 -33 -22 -71 -27 -85 -6 -14 -14 -41
-19 -60 -17 -78 -70 -234 -82 -242 -21 -13 -291 -10 -309 5 -8 6 -27 59 -41
117 -15 58 -47 182 -71 275 -100 381 -116 444 -136 525 -12 47 -28 107 -36
134 -19 64 -18 116 4 168 14 35 17 73 17 208 -1 159 -2 168 -33 263 -30 89
-71 173 -104 213 -7 8 -18 20 -23 27 -14 17 -45 65 -45 71 0 2 69 5 154 5
l153 1 38 -157z m1535 141 c0 -9 -6 -30 -13 -47 -24 -56 -49 -131 -54 -162 -3
-16 -9 -34 -13 -40 -4 -5 -10 -27 -14 -47 -4 -22 -15 -42 -26 -48 -10 -5 -84
-10 -165 -10 -165 0 -167 1 -146 73 46 158 86 274 99 285 11 8 62 12 174 12
138 0 158 -2 158 -16z m1130 12 c0 -6 -30 -78 -56 -134 -13 -29 -24 -57 -24
-63 0 -6 -6 -23 -14 -37 -8 -15 -22 -46 -32 -70 -9 -24 -22 -46 -28 -50 -6 -4
-114 -9 -241 -12 -257 -7 -260 -7 -367 -87 -104 -79 -174 -187 -206 -318 -39
-158 -44 -191 -39 -255 15 -216 72 -376 172 -488 46 -51 61 -62 141 -100 75
-36 164 -40 164 -8 0 7 27 74 60 150 32 75 62 147 66 159 13 42 67 152 78 159
15 10 538 10 553 0 14 -9 35 -280 23 -301 -6 -12 -35 -14 -152 -12 -79 1 -156
-1 -171 -4 -31 -8 -35 -16 -112 -205 -26 -63 -60 -146 -75 -185 -16 -38 -31
-79 -35 -91 -3 -11 -16 -31 -29 -43 -23 -22 -29 -22 -167 -18 -79 3 -169 9
-199 15 -289 51 -507 253 -611 562 -59 177 -84 475 -47 572 12 31 1 79 -13 57
-5 -8 -9 -24 -9 -36 0 -12 -4 -23 -10 -25 -10 -3 -33 -74 -51 -158 -5 -24 -14
-49 -19 -54 -6 -6 -10 -19 -10 -30 0 -11 -6 -38 -14 -61 -12 -37 -29 -93 -61
-205 -23 -80 -76 -254 -87 -285 -5 -16 -14 -50 -19 -75 -5 -24 -14 -49 -19
-54 -6 -6 -10 -21 -10 -35 0 -15 -6 -37 -13 -51 -8 -14 -17 -41 -20 -60 -4
-19 -14 -44 -22 -57 -15 -22 -20 -23 -171 -23 -176 0 -175 0 -157 79 23 97 34
136 42 146 5 5 12 26 15 45 4 19 11 44 15 55 5 11 13 38 19 60 16 63 63 218
72 240 5 11 12 36 16 55 3 19 10 41 15 50 4 8 12 33 18 55 5 22 16 63 24 90
57 191 90 300 112 365 29 88 52 167 66 229 5 25 15 48 22 53 6 4 89 8 183 8
l170 0 21 28 c11 15 28 43 38 62 23 45 112 156 155 194 36 31 126 93 181 124
44 24 158 59 234 70 57 9 635 16 635 8z"/>
<path d="M3050 5230 c-10 -10 -22 -40 -25 -67 -4 -26 -15 -75 -24 -108 l-17
-60 -59 -13 c-33 -8 -75 -20 -92 -28 -42 -19 -56 -11 -118 63 -58 68 -93 103
-104 103 -24 0 -217 -117 -242 -146 -12 -15 -4 -51 37 -167 24 -66 19 -82 -54
-157 -37 -38 -74 -70 -81 -70 -7 0 -27 6 -44 14 -158 68 -181 68 -212 8 -11
-20 -39 -70 -62 -110 -61 -104 -59 -112 39 -203 l82 -76 -18 -64 c-9 -35 -21
-81 -25 -103 -10 -44 -20 -53 -76 -61 -22 -3 -68 -13 -103 -22 -68 -18 -66
-15 -76 -113 -6 -55 7 -206 18 -217 7 -7 121 -32 181 -40 44 -6 55 -16 55 -53
0 -14 6 -43 14 -65 33 -98 33 -97 -54 -183 -53 -52 -80 -87 -80 -101 0 -20 9
-43 41 -101 5 -8 19 -35 31 -59 32 -61 74 -105 96 -98 9 3 42 15 72 27 30 12
72 27 93 32 l39 11 75 -75 74 -74 -16 -45 c-9 -24 -21 -64 -27 -89 -6 -25 -15
-51 -20 -57 -23 -28 3 -58 102 -121 139 -87 144 -87 208 -13 82 94 113 122
125 114 23 -14 112 -42 137 -43 14 0 30 -4 36 -8 7 -4 22 -54 35 -112 12 -58
30 -114 40 -124 15 -16 33 -19 136 -19 146 -1 164 6 181 67 6 25 12 54 12 64
0 10 7 41 15 69 14 47 18 51 53 58 20 3 66 16 101 27 l64 21 80 -88 c93 -101
101 -102 198 -43 150 91 166 113 134 174 -8 16 -15 38 -15 49 -1 11 -7 31 -15
45 -28 49 -20 71 59 149 l74 74 49 -17 c26 -9 62 -21 78 -26 17 -4 44 -14 62
-21 28 -12 34 -11 53 6 12 11 28 33 35 50 8 16 28 53 44 80 70 115 69 120 -29
212 -86 82 -92 95 -65 160 8 19 15 50 15 67 0 60 12 67 170 98 30 5 65 20 78
31 21 19 22 29 22 144 0 69 -4 133 -10 143 -10 19 -79 43 -157 54 -70 10 -92
25 -98 65 -3 20 -12 56 -20 81 -24 73 -21 82 58 156 108 102 104 92 61 177
-20 39 -45 83 -55 96 -11 13 -19 29 -19 36 0 17 -43 55 -62 55 -9 0 -58 -16
-108 -35 -50 -19 -95 -35 -100 -35 -4 0 -39 33 -79 73 -76 77 -83 98 -56 151
8 15 15 37 15 47 0 10 7 37 16 59 13 32 14 47 6 66 -7 13 -16 24 -21 24 -6 0
-29 13 -53 29 -59 39 -155 91 -168 91 -12 0 -42 -29 -115 -114 -44 -50 -54
-57 -80 -53 -60 10 -163 38 -178 50 -9 7 -25 56 -37 117 -13 66 -28 110 -38
118 -12 9 -54 12 -145 11 -110 -1 -132 -4 -147 -19z m393 -304 c32 -9 66 -16
75 -16 9 0 30 -7 46 -15 15 -8 34 -15 40 -15 17 0 160 -71 164 -81 2 -5 8 -9
13 -9 10 0 62 -35 87 -57 7 -7 26 -20 41 -29 46 -27 193 -193 256 -289 35 -53
85 -156 85 -174 0 -9 4 -21 9 -27 19 -21 51 -141 71 -264 11 -72 11 -261 0
-325 -24 -132 -30 -156 -70 -260 -50 -130 -142 -276 -245 -386 -196 -210 -469
-333 -765 -346 -270 -12 -516 69 -750 245 -164 124 -327 369 -379 568 -5 18
-12 38 -16 45 -11 16 -24 131 -31 273 -6 108 14 296 37 338 5 10 9 28 9 41 0
13 7 32 15 43 8 10 15 26 15 34 0 27 100 215 138 259 20 25 60 72 88 105 108
130 311 262 479 310 33 10 75 22 93 28 101 30 388 32 495 4z"/>
<path d="M3048 4875 c-2 -3 -31 -10 -64 -15 -54 -10 -77 -17 -174 -57 -120
-50 -203 -102 -300 -190 -179 -162 -274 -322 -342 -573 -29 -106 -31 -385 -5
-480 38 -133 52 -176 64 -195 7 -11 13 -25 13 -31 0 -27 107 -190 176 -268 71
-82 236 -216 283 -231 13 -4 40 -17 60 -29 47 -27 86 -42 196 -73 119 -33 336
-38 460 -9 129 30 259 83 360 148 102 65 245 209 302 303 20 33 47 74 60 91
13 17 23 38 23 46 0 9 6 21 14 27 8 7 17 28 21 48 3 19 10 43 15 52 20 35 41
137 51 243 16 157 -10 378 -57 485 -8 17 -14 37 -14 45 0 8 -4 18 -9 24 -4 5
-25 41 -46 79 -20 39 -44 77 -51 86 -8 8 -14 19 -14 24 0 13 -67 90 -140 161
-79 77 -191 156 -270 191 -30 13 -64 28 -75 33 -98 45 -238 70 -396 70 -75 0
-138 -2 -141 -5z m407 -136 c67 -20 153 -58 260 -116 71 -38 243 -214 296
-304 43 -72 89 -173 89 -195 0 -7 7 -25 15 -40 8 -16 15 -38 15 -49 0 -11 7
-38 15 -60 16 -46 20 -261 5 -335 -20 -102 -30 -143 -39 -154 -4 -6 -11 -24
-15 -40 -14 -58 -75 -172 -128 -241 -82 -107 -88 -113 -163 -174 -80 -66 -131
-98 -141 -88 -6 6 -9 197 -5 340 l1 57 110 0 c128 0 132 2 107 83 -35 114 -47
160 -47 178 0 10 -4 20 -9 23 -5 4 -12 25 -16 49 -4 23 -13 62 -20 87 -8 25
-19 63 -24 85 -16 64 -51 187 -63 225 -6 19 -15 51 -19 70 -20 92 -68 270 -78
288 -6 11 -11 31 -11 44 0 13 -10 39 -21 58 -25 40 -25 41 -54 -70 -9 -36 -23
-83 -31 -105 -8 -23 -14 -48 -14 -57 0 -8 -7 -38 -14 -64 -8 -27 -22 -76 -31
-109 -9 -33 -22 -82 -30 -110 -7 -27 -21 -79 -30 -115 -23 -88 -55 -200 -65
-230 -5 -14 -11 -42 -15 -64 -3 -21 -10 -46 -15 -55 -11 -23 -33 -130 -34
-171 l-1 -35 100 -3 c71 -2 103 -7 110 -16 13 -17 10 -465 -2 -476 -38 -32
-347 -46 -430 -19 -21 6 -44 13 -51 15 -10 3 -12 57 -10 246 l3 243 104 3
c107 3 137 13 126 41 -4 9 -17 57 -30 106 -13 50 -31 117 -40 150 -16 57 -25
91 -61 222 -8 32 -22 83 -29 113 -13 51 -22 84 -60 222 -8 29 -21 78 -29 108
-41 153 -69 246 -77 254 -10 11 -43 -61 -53 -119 -4 -22 -11 -44 -16 -50 -4
-5 -12 -35 -18 -65 -11 -57 -29 -126 -57 -220 -9 -30 -23 -80 -30 -110 -15
-61 -25 -98 -84 -315 -23 -82 -45 -163 -50 -180 -5 -16 -12 -46 -16 -65 -4
-19 -12 -41 -17 -47 -7 -9 -7 -18 2 -28 9 -11 40 -15 118 -17 l107 -3 3 -197
c2 -145 -1 -198 -9 -198 -20 0 -181 126 -228 177 -24 26 -55 66 -70 88 -14 22
-29 42 -32 45 -11 9 -70 118 -79 147 -5 15 -18 53 -29 83 -60 158 -64 451 -7
610 71 201 172 351 311 466 109 91 305 182 435 204 94 15 335 3 415 -21z"/>
<path d="M4968 4189 c-9 -6 -8 -38 5 -146 9 -76 17 -185 17 -243 0 -109 -28
-341 -54 -445 -8 -33 -20 -80 -26 -104 -7 -27 -7 -48 -1 -54 11 -11 962 -10
993 2 13 5 43 26 66 47 72 64 98 165 66 251 -43 117 -118 167 -244 165 -42 -1
-128 5 -190 13 -148 20 -257 70 -343 158 -79 81 -137 207 -137 297 0 21 -6 42
-12 48 -16 12 -123 21 -140 11z"/>
</g>
</svg>
