<svg version="1.0" xmlns="http://www.w3.org/2000/svg" width="1800.000000pt" height="705.000000pt" viewBox="0 0 1800.000000 705.000000" preserveAspectRatio="xMidYMid meet" style="width: 1080px; height: auto;"> <g transform="translate(0.000000,705.000000) scale(0.040000,-0.040000)" fill="#ffffff" stroke="none">   <path d="M36013 14375 c-635 -71 -1423 -470 -2016 -1020 -312 -290 -647 -564 -822 -673 -103 -65 -193 -125 -200 -133 -57 -69 -771 -349 -890 -349 -32 0 -123 -17 -203 -39 -108 -29 -259 -37 -607 -35 -254 2 -478 3 -497 1 -26 -1 -30 -25 -18 -96 16 -90 50 -370 85 -706 l18 -162 900 -13 c1005 -14 987 -11 1134 -196 208 -263 142 -665 -142 -856 l-108 -73 -809 0 c-446 0 -814 -8 -819 -19 -6 -10 -3 -463 5 -1006 9 -543 8 -997 -2 -1009 -20 -25 -193 -28 -217 -4 -18 18 -37 235 -78 926 -14 233 -37 464 -52 512 -14 48 -25 217 -26 375 0 158 -17 400 -37 538 -20 137 -36 325 -37 417 0 92 -12 198 -27 237 -15 39 -37 245 -50 458 -34 553 -48 675 -82 676 -240 11 -1134 -9 -1151 -26 -23 -23 -81 -167 -106 -262 -8 -28 -29 -87 -49 -132 -19 -44 -52 -120 -72 -168 -21 -49 -55 -127 -76 -175 -21 -48 -57 -130 -79 -181 -22 -52 -50 -111 -62 -132 -12 -21 -28 -54 -35 -75 -23 -61 -88 -207 -126 -283 -19 -39 -35 -81 -35 -94 0 -13 -34 -99 -76 -192 -101 -222 -147 -327 -185 -418 -17 -42 -68 -151 -113 -243 -44 -92 -74 -177 -66 -190 16 -27 888 -26 931 1 15 10 34 44 41 75 7 31 37 118 67 194 30 76 64 166 76 200 12 34 45 124 74 200 29 76 76 205 104 288 27 82 60 169 73 192 13 24 30 88 39 143 16 100 88 194 129 168 12 -7 24 -253 26 -546 3 -293 16 -617 29 -720 14 -103 36 -379 51 -612 14 -234 31 -465 38 -513 7 -48 26 -329 41 -625 15 -296 35 -633 43 -750 l16 -212 975 0 975 0 -2 125 c-1 68 -6 535 -11 1037 l-10 913 245 7 c249 7 315 -11 315 -88 0 -20 15 -72 34 -116 19 -43 55 -146 81 -228 25 -83 60 -173 78 -200 18 -27 32 -68 32 -91 0 -23 17 -74 37 -113 21 -39 38 -89 38 -110 0 -22 10 -50 23 -63 12 -13 34 -63 48 -111 14 -48 47 -144 74 -212 27 -69 90 -238 141 -375 51 -138 130 -341 175 -450 45 -110 96 -240 114 -288 73 -196 585 -743 989 -1054 40 -32 113 -94 161 -139 171 -160 203 -86 86 197 -47 113 -86 222 -86 241 0 19 -16 65 -35 101 -40 76 -159 424 -190 554 -11 48 -45 149 -75 225 -30 76 -60 160 -67 188 -7 27 -29 85 -48 128 -19 44 -35 94 -36 113 0 18 -29 112 -64 209 -35 96 -73 208 -85 250 -27 97 -73 229 -116 332 -19 45 -34 102 -34 126 0 24 -12 56 -27 71 -15 15 -36 65 -48 111 -12 47 -62 197 -112 335 -50 137 -100 283 -111 325 -10 41 -48 136 -84 210 -66 137 -60 227 14 227 40 0 187 137 281 263 212 283 319 722 264 1082 -31 203 -94 417 -140 480 -47 64 -88 178 -73 202 28 46 308 27 352 -25 51 -59 106 -203 135 -352 12 -62 33 -152 48 -200 39 -132 32 -550 -11 -675 -21 -58 -38 -128 -38 -155 0 -111 -189 -435 -358 -612 -157 -166 -168 -184 -140 -237 17 -32 39 -91 50 -133 10 -41 43 -137 72 -213 29 -76 93 -261 141 -412 49 -152 104 -309 122 -350 19 -42 39 -104 46 -138 11 -55 85 -278 169 -512 15 -42 38 -115 52 -163 14 -48 36 -98 48 -111 13 -13 23 -49 23 -81 0 -31 16 -93 34 -138 19 -46 54 -150 78 -232 24 -83 59 -190 77 -238 18 -48 53 -149 76 -225 23 -76 56 -177 73 -225 95 -272 187 -584 187 -637 0 -33 10 -66 23 -74 13 -8 30 -46 39 -85 14 -66 138 -154 216 -154 15 0 62 -16 106 -35 799 -356 1795 -348 2841 22 222 79 747 351 903 469 51 38 101 69 113 69 54 1 628 532 786 727 244 303 298 400 297 533 -1 137 -32 196 -142 269 -66 44 -162 46 -1789 45 l-1719 -1 -113 78 c-62 43 -163 141 -224 219 -106 136 -363 611 -362 673 0 17 -16 67 -35 112 -254 594 -295 1726 -86 2333 15 41 34 120 44 175 10 55 30 122 44 150 50 94 108 239 108 270 0 18 51 109 113 203 61 94 112 179 112 188 0 25 242 251 269 251 14 0 39 17 56 38 27 32 246 37 1691 37 1539 0 1666 3 1729 44 232 150 207 398 -79 769 -42 55 -83 105 -90 112 -8 7 -57 67 -111 134 -124 154 -296 325 -454 453 -68 54 -129 105 -136 113 -57 63 -491 347 -625 408 -21 9 -54 27 -75 40 -230 145 -902 358 -1275 404 -191 24 -872 23 -1087 -2z" class=""></path> <path d="M7488 14176 c-166 -23 -317 -50 -338 -59 -21 -9 -88 -28 -150 -41 -345 -73 -706 -215 -1112 -437 -27 -14 -64 -41 -83 -58 -18 -17 -45 -31 -59 -31 -15 0 -69 -34 -121 -75 -52 -41 -105 -75 -118 -75 -12 0 -55 -34 -94 -75 -40 -41 -84 -75 -99 -75 -43 0 -595 -546 -758 -750 -175 -219 -271 -364 -415 -628 -198 -363 -377 -800 -429 -1046 -10 -48 -27 -104 -38 -125 -32 -64 -95 -469 -127 -822 -33 -362 -3 -938 66 -1241 18 -83 39 -184 46 -225 17 -102 76 -296 141 -463 30 -76 63 -166 74 -200 19 -58 221 -476 285 -588 58 -103 330 -501 391 -573 116 -136 334 -376 388 -426 67 -64 316 -283 350 -308 13 -10 94 -72 179 -137 85 -65 163 -118 173 -118 10 0 36 -16 58 -35 22 -19 118 -76 215 -127 96 -50 191 -101 212 -112 120 -65 340 -156 490 -202 95 -30 218 -69 273 -87 740 -246 1961 -210 2657 79 45 19 99 34 119 34 40 0 645 295 774 377 41 26 91 55 112 65 34 16 221 157 681 512 83 63 191 138 241 166 196 110 594 305 621 305 15 0 60 16 99 36 102 51 250 104 408 146 76 20 188 50 250 66 62 17 172 40 245 52 73 11 185 32 250 46 331 72 485 89 968 105 288 10 598 34 687 54 484 105 857 516 951 1048 11 64 32 160 47 213 38 138 33 405 -10 549 -21 67 -38 153 -38 189 0 37 -16 99 -35 138 -20 39 -56 115 -82 169 -67 146 -396 469 -545 537 -204 92 -218 97 -410 138 -112 24 -317 40 -525 41 -323 2 -346 5 -450 69 -280 170 -333 591 -107 852 136 158 230 171 1117 150 701 -16 726 -15 768 33 24 27 44 65 44 84 0 128 289 570 469 717 31 26 56 65 56 89 0 38 -80 41 -1044 33 -1423 -12 -2044 51 -2893 296 -225 65 -632 250 -825 376 -42 27 -101 62 -132 78 -31 16 -56 38 -56 50 0 12 -16 21 -35 21 -20 0 -40 8 -44 19 -13 29 -299 267 -383 319 -42 25 -98 66 -125 89 -194 167 -950 546 -1275 639 -671 192 -1332 246 -1950 160z m896 -1120 c7 -24 31 -154 55 -290 48 -275 64 -293 315 -332 60 -9 131 -32 158 -50 95 -66 146 -40 326 167 96 111 178 213 183 225 11 33 97 30 117 -3 9 -14 41 -37 71 -50 29 -13 87 -46 129 -73 41 -27 97 -61 125 -75 226 -116 266 -170 205 -272 -24 -40 -43 -94 -43 -119 0 -26 -17 -79 -38 -118 -82 -157 -54 -244 141 -438 222 -223 204 -222 593 -46 128 58 197 38 253 -72 20 -40 91 -164 156 -275 153 -259 152 -280 -21 -427 -319 -272 -306 -246 -234 -452 28 -78 50 -178 50 -222 0 -95 95 -183 197 -185 36 -1 150 -21 253 -46 l188 -45 6 -363 c8 -421 8 -421 -216 -448 -162 -20 -355 -69 -389 -100 -13 -12 -32 -81 -42 -153 -9 -72 -37 -187 -61 -254 l-44 -122 148 -141 c81 -77 175 -160 209 -183 86 -61 80 -177 -19 -321 -43 -63 -106 -170 -140 -237 -126 -250 -98 -243 -427 -98 -68 29 -234 87 -252 87 -4 0 -98 -90 -208 -201 -218 -217 -228 -248 -137 -429 19 -37 34 -88 34 -114 0 -26 17 -68 37 -95 70 -92 47 -151 -93 -239 -198 -125 -227 -143 -281 -172 -28 -15 -79 -43 -113 -63 -106 -62 -137 -44 -335 188 -185 217 -228 249 -279 204 -35 -32 -274 -104 -343 -104 -89 0 -144 -78 -170 -242 -47 -300 -55 -333 -86 -359 -44 -36 -418 -56 -598 -32 -162 22 -165 27 -204 271 -45 280 -86 362 -182 363 -67 1 -316 79 -345 108 -29 29 -82 17 -127 -29 -61 -64 -259 -287 -313 -353 -55 -67 -94 -57 -288 71 -78 52 -195 124 -259 161 -137 80 -156 116 -110 209 19 38 61 157 94 265 l59 195 -196 202 -197 202 -104 -34 c-58 -18 -176 -64 -263 -103 -106 -47 -171 -63 -197 -48 -38 21 -197 283 -270 445 -20 44 -48 87 -62 95 -70 44 -18 136 185 329 l211 199 -51 174 c-28 95 -58 219 -67 274 -17 111 -97 148 -403 184 -76 9 -150 25 -166 34 -37 24 -63 440 -40 628 l19 147 175 47 c96 25 206 46 245 46 111 1 167 44 167 126 0 40 10 98 23 130 13 32 42 119 65 194 l42 137 -216 201 c-219 204 -255 273 -176 338 20 17 37 46 37 64 0 18 14 47 32 65 17 19 71 111 119 205 84 167 146 222 224 198 46 -14 189 -77 279 -123 72 -37 246 -46 246 -14 0 11 74 96 164 189 150 155 163 176 148 249 -25 121 -90 322 -129 398 -46 89 -15 147 116 215 54 29 148 83 206 121 133 85 295 167 304 155 299 -412 424 -504 556 -411 29 20 113 44 187 53 199 26 190 10 275 461 17 89 35 171 41 181 5 11 177 19 382 19 333 0 373 -5 384 -44z m4385 -2612 c18 -15 31 -84 31 -169 0 -251 150 -552 379 -765 91 -84 331 -235 374 -235 15 0 57 -16 93 -35 129 -68 462 -116 773 -112 270 5 308 0 389 -50 188 -116 312 -366 285 -570 -32 -229 -70 -299 -231 -425 l-100 -78 -1248 -9 c-956 -6 -1250 -1 -1257 22 -6 16 13 82 41 147 29 64 52 139 52 167 0 28 16 108 36 178 114 401 147 1234 65 1615 -17 76 -39 179 -50 229 -12 55 -10 102 5 117 29 29 319 7 363 -27z" class=""></path> <path d="M7788 12411 c-28 -6 -112 -24 -188 -38 -131 -26 -219 -50 -497 -135 -67 -21 -134 -38 -148 -38 -67 0 -385 -171 -551 -295 -268 -201 -713 -661 -801 -827 -20 -36 -44 -71 -54 -78 -30 -20 -162 -326 -210 -487 -25 -83 -56 -184 -70 -225 -14 -42 -34 -126 -45 -188 -11 -62 -32 -157 -46 -212 -15 -55 -27 -230 -27 -388 0 -340 38 -547 209 -1137 85 -294 288 -589 664 -965 382 -383 572 -511 939 -636 68 -23 147 -52 175 -63 56 -24 212 -61 487 -115 227 -46 755 -33 925 22 62 21 186 57 275 80 519 140 727 263 1138 675 421 422 586 666 701 1039 24 76 58 174 77 220 19 45 34 108 34 140 0 33 19 102 43 156 62 142 64 936 1 1134 -23 76 -61 205 -84 288 -115 422 -245 689 -436 900 -50 55 -157 173 -238 262 -305 337 -718 632 -977 698 -53 14 -243 65 -421 113 -313 86 -732 133 -875 100z m662 -264 c280 -50 416 -96 735 -249 654 -313 1213 -1021 1388 -1758 264 -1113 -184 -2285 -1110 -2907 -197 -132 -600 -313 -850 -382 -505 -139 -1295 -51 -1688 188 -48 30 -116 62 -150 73 -124 38 -416 251 -606 442 -506 508 -795 1204 -793 1908 1 179 12 376 25 438 13 62 34 163 47 225 33 166 159 497 235 618 37 58 67 111 67 117 0 40 236 356 373 500 303 317 619 521 1065 687 370 138 844 175 1262 100z" class=""></path> <path d="M7600 11912 c-581 -112 -1052 -393 -1425 -849 -165 -203 -275 -372 -275 -422 0 -19 -17 -49 -37 -66 -21 -17 -38 -56 -38 -87 0 -32 -16 -70 -35 -86 -19 -16 -41 -59 -48 -97 -7 -37 -25 -112 -39 -167 -71 -277 -90 -425 -87 -688 2 -262 49 -583 106 -730 12 -32 42 -108 66 -170 172 -446 447 -783 975 -1195 143 -112 150 -89 146 485 -1 282 -13 523 -25 534 -12 11 -134 11 -271 1 -301 -22 -351 -6 -299 94 20 38 36 89 36 114 0 25 13 70 29 100 17 30 38 94 48 142 10 48 30 121 44 163 25 71 65 212 145 512 21 76 53 194 72 263 19 68 45 170 58 225 14 55 43 161 66 237 22 76 51 183 63 238 20 94 37 160 102 418 15 59 36 157 47 219 27 153 89 314 116 304 12 -5 59 -163 104 -350 84 -352 134 -549 193 -766 19 -69 53 -199 76 -288 22 -89 58 -224 79 -300 20 -76 52 -194 71 -262 18 -69 52 -193 74 -275 23 -83 57 -212 77 -288 20 -76 59 -205 86 -287 76 -229 87 -218 -219 -213 -148 3 -286 4 -307 3 -33 -3 -38 -83 -36 -633 l3 -631 148 -44 c205 -61 864 -61 1049 1 l125 42 6 631 7 631 -301 0 c-325 0 -331 3 -262 134 20 39 37 97 37 128 0 32 16 112 36 179 20 67 72 251 114 409 42 158 93 344 112 413 19 68 46 170 60 225 50 205 130 503 166 615 20 64 37 143 37 175 0 33 16 110 35 172 56 176 115 439 115 509 0 35 11 70 25 78 36 23 125 -137 125 -224 0 -42 16 -126 35 -188 44 -140 91 -332 114 -462 9 -55 30 -125 46 -155 17 -30 30 -79 30 -109 0 -30 16 -107 36 -171 20 -63 53 -177 74 -253 73 -271 113 -415 151 -547 21 -73 39 -154 39 -178 0 -24 17 -77 37 -116 21 -39 38 -100 39 -134 0 -34 17 -91 37 -125 19 -34 36 -87 36 -117 1 -30 20 -87 43 -127 57 -99 30 -164 -61 -146 -60 11 -425 25 -493 18 -35 -4 -42 -1005 -8 -1047 41 -49 56 -41 276 134 223 179 334 292 512 519 153 196 332 523 332 606 0 18 16 70 35 115 101 236 119 372 108 820 -10 426 -19 482 -120 775 -16 48 -45 117 -64 154 -19 36 -34 80 -34 97 0 86 -279 472 -510 706 -244 247 -321 302 -663 469 -402 197 -959 271 -1402 186z"></path>   <path d="M17863 12124 c-718 -16 -915 -38 -1025 -115 -27 -19 -68 -34 -91 -34 -72 0 -334 -213 -480 -391 -231 -281 -339 -527 -495 -1121 -43 -167 -59 -513 -24 -513 42 0 228 -178 288 -275 323 -523 386 -1283 154 -1830 -56 -132 -57 -132 116 -313 427 -448 590 -487 2079 -500 l1097 -9 -16 245 c-12 185 -26 1627 -17 1827 1 24 67 30 281 25 l281 -7 72 -200 c39 -110 87 -230 107 -267 19 -36 35 -83 35 -104 0 -21 16 -70 35 -109 20 -39 47 -99 61 -133 14 -34 49 -117 77 -184 29 -67 52 -141 53 -163 0 -22 17 -62 37 -89 20 -27 37 -63 37 -81 0 -17 28 -91 61 -164 34 -72 86 -205 116 -294 30 -89 70 -193 89 -230 l34 -67 481 -8 c265 -4 496 -3 515 2 38 11 24 90 -45 241 -26 55 -71 161 -102 237 -30 76 -80 194 -111 263 -32 68 -74 170 -95 225 -43 111 -253 630 -308 757 -19 45 -35 92 -35 105 0 27 -163 367 -205 428 -38 55 -9 118 68 147 174 66 401 373 482 650 14 48 43 144 65 213 51 159 52 496 3 637 -21 58 -38 132 -38 164 0 31 -16 89 -35 128 -121 244 -156 308 -233 413 -105 146 -231 247 -428 345 -262 130 -402 149 -1080 150 l-613 0 -29 -69 c-47 -109 -289 -557 -374 -690 -124 -196 -100 -223 177 -200 291 25 1108 24 1297 -1 163 -21 260 -88 362 -250 92 -146 95 -459 5 -604 -179 -291 -165 -288 -1118 -286 -436 1 -811 1 -832 1 -34 -1 -38 -121 -37 -1032 0 -1017 0 -1031 -49 -1025 -28 3 -300 11 -604 17 -683 13 -731 29 -965 317 -52 63 -94 127 -94 141 0 15 -16 59 -35 98 -19 39 -52 132 -73 208 -21 76 -52 186 -69 245 -19 64 -22 115 -8 127 12 11 309 14 660 5 351 -8 657 -11 681 -6 73 16 66 915 -7 954 -27 15 -61 21 -74 13 -52 -33 -1212 -57 -1244 -27 -57 53 113 637 208 715 20 17 36 43 36 59 0 45 130 177 252 256 l111 72 496 5 c497 5 566 17 566 98 0 40 165 357 331 638 124 208 121 250 -17 241 -42 -3 -403 -13 -801 -21z" class=""></path> <path d="M21299 12111 c-13 -16 19 -68 84 -137 199 -208 279 -334 376 -586 153 -402 176 -971 52 -1301 -53 -143 -55 -158 -20 -288 20 -75 52 -204 72 -286 19 -83 58 -240 88 -350 105 -397 173 -653 201 -763 15 -62 43 -169 62 -237 18 -69 52 -199 74 -288 23 -89 56 -219 75 -287 73 -268 112 -428 118 -488 l7 -62 423 -7 c232 -4 432 2 443 13 18 18 121 373 169 581 11 48 31 116 45 150 14 34 45 130 69 213 99 337 118 403 142 475 13 41 41 131 61 200 20 68 47 158 60 200 47 155 100 330 150 500 28 96 69 231 89 300 21 68 48 158 60 200 12 41 33 108 47 150 14 41 45 142 68 225 77 268 117 398 143 462 14 34 34 102 44 150 11 48 30 121 44 163 14 41 45 142 68 225 23 82 56 189 74 237 61 173 113 345 113 375 0 16 18 68 40 113 79 167 74 169 -415 164 -475 -4 -486 -8 -514 -152 -15 -75 -75 -294 -125 -453 -20 -64 -36 -130 -36 -147 0 -16 -15 -65 -34 -109 -18 -43 -47 -129 -63 -191 -16 -62 -46 -169 -67 -237 -21 -69 -48 -165 -60 -213 -12 -48 -33 -121 -47 -162 -14 -42 -43 -140 -65 -219 -37 -135 -77 -279 -154 -544 -18 -62 -49 -174 -70 -250 -20 -76 -55 -198 -76 -272 -21 -73 -39 -163 -39 -200 0 -80 -91 -236 -125 -215 -14 8 -25 43 -25 77 0 35 -17 144 -38 243 -21 99 -55 264 -76 367 -22 103 -50 233 -64 288 -14 55 -34 145 -45 200 -11 55 -46 190 -77 300 -31 110 -62 233 -67 275 -6 41 -26 131 -46 200 -20 68 -71 271 -113 450 -42 178 -93 375 -113 437 -20 62 -36 137 -36 168 0 58 -67 332 -86 351 -25 25 -844 18 -865 -8z" class=""></path> <path d="M25577 12126 l-386 -13 -31 -125 c-64 -256 -78 -303 -106 -356 -16 -29 -29 -80 -29 -112 0 -31 -17 -90 -38 -130 -21 -40 -40 -107 -44 -150 l-5 -77 412 9 c449 10 466 15 490 149 10 50 32 114 51 141 19 27 34 69 34 93 0 41 20 93 126 333 94 213 86 268 -38 256 -28 -2 -224 -11 -436 -18z" class=""></path> <path d="M28050 12123 c-703 -16 -937 -39 -1091 -111 -44 -20 -89 -37 -101 -37 -79 0 -471 -258 -605 -398 -145 -152 -403 -499 -403 -542 0 -19 -10 -35 -21 -35 -12 0 -33 -25 -47 -56 -25 -56 -32 -56 -482 -56 -381 0 -460 -7 -475 -38 -25 -50 -76 -241 -93 -350 -7 -48 -22 -99 -32 -112 -11 -14 -28 -65 -38 -113 -10 -48 -33 -121 -50 -162 -17 -42 -48 -137 -69 -213 -22 -76 -74 -250 -116 -387 -43 -138 -95 -312 -117 -388 -22 -76 -51 -171 -65 -212 -14 -42 -34 -115 -45 -163 -11 -48 -32 -121 -46 -162 -14 -42 -61 -194 -105 -338 -43 -144 -90 -296 -104 -337 -14 -42 -34 -115 -45 -163 -11 -48 -34 -127 -51 -175 -17 -48 -45 -127 -61 -175 -17 -48 -45 -127 -62 -175 -17 -48 -37 -113 -44 -144 l-13 -56 460 0 c529 0 487 -21 557 275 25 103 59 227 76 275 17 48 51 155 75 238 24 82 59 195 78 250 19 56 35 120 35 143 0 23 16 79 35 124 19 46 47 133 63 195 31 118 36 138 127 463 31 110 66 239 77 287 12 48 39 161 62 250 22 89 49 216 61 281 12 65 31 133 42 150 11 17 32 76 46 130 28 113 74 141 96 59 26 -97 18 -209 -24 -323 -72 -198 -33 -1007 60 -1247 13 -35 43 -121 66 -193 84 -255 299 -594 513 -808 130 -131 549 -399 622 -399 19 0 64 -16 100 -35 115 -61 378 -96 796 -107 402 -10 405 -10 437 47 41 75 195 451 196 479 0 21 35 105 125 304 25 55 63 150 84 212 22 62 56 158 75 213 l37 100 458 0 459 0 -3 112 c-5 289 -44 716 -68 746 -18 23 -54 28 -115 16 -133 -26 -974 -34 -1116 -11 -134 22 -236 8 -236 -31 0 -14 -15 -60 -34 -104 -19 -43 -54 -129 -77 -191 -24 -62 -58 -146 -76 -187 -155 -355 -263 -628 -263 -666 0 -200 -515 -21 -759 264 -384 450 -504 1180 -307 1882 95 340 393 704 697 851 l168 81 576 0 576 0 47 106 c27 59 90 207 140 330 51 123 126 285 166 359 87 161 79 207 -34 200 -46 -3 -403 -13 -795 -22z" class=""></path>         </g> </svg>